<svg xmlns="http://www.w3.org/2000/svg" viewBox="0 0 800 600" role="img" aria-label="Sports photography sample">
  <defs>
    <linearGradient id="bg" x1="0" y1="0" x2="0" y2="1">
      <stop offset="0%" stop-color="#0d0d0d"/>
      <stop offset="100%" stop-color="#000000"/>
    </linearGradient>
  </defs>
  <rect width="800" height="600" fill="url(#bg)"/>
  <g fill="#E8AE4C">
    <path d="M340 200 h120 v90 c0 45 -30 70 -60 70 c-30 0 -60 -25 -60 -70 Z"/>
    <path d="M340 210 c-40 0 -60 20 -60 45 c0 30 25 45 55 45" fill="none" stroke="#E8AE4C" stroke-width="12"/>
    <path d="M460 210 c40 0 60 20 60 45 c0 30 -25 45 -55 45" fill="none" stroke="#E8AE4C" stroke-width="12"/>
    <rect x="380" y="355" width="40" height="40"/>
    <rect x="350" y="395" width="100" height="20" rx="4"/>
  </g>
  <g stroke="#1a6fd4" stroke-width="3" opacity="0.5">
    <line x1="80" y1="500" x2="720" y2="500"/>
  </g>
  <text x="60" y="555" font-family="Georgia, serif" font-size="42" fill="#ede8df">Sports</text>
  <text x="60" y="580" font-family="Helvetica, Arial, sans-serif" font-size="16" letter-spacing="3" fill="#7a8fa8">SAMPLE PLACEHOLDER</text>
</svg>
